# xmcd CD database file
#
# Track frame offsets:
#	150
#	13527
#	27232
#	43022
#	56810
#	68742
#	80982
#	97032
#	111500
#	123772
#	135492
#	154382
#	168227
#	181612
#	200435
#	215477
#
# Disc length: 3014 seconds
#
# Revision: 1
# Processed by: cddbd v1.4PL0 Copyright (c) Steve Scherf et al.
# Submitted via: CDex 1.50beta9
#
DISCID=df0bc410
DTITLE=ANN BREEN - IS IT REALLY LOVE
DYEAR=1993
DGENRE=Country
TTITLE0=A mother's Love's a Blessing
TTITLE1=Is It Really Love
TTITLE2=Amazing Grace
TTITLE3=Let Him Go Let Him Tarry
TTITLE4=I've Sacrificed More Than You'll Ever Lose
TTITLE5=You'll Never Know Hom Much I Love you
TTITLE6=Hold Me In Your Arms Forever
TTITLE7=I wish All My Children Were Babes Again
TTITLE8=Get Well Soon
TTITLE9=The Best Bedroom In Town
TTITLE10=Butcher bBoy
TTITLE11=Give Me One Good Reason
TTITLE12=Empty Arms
TTITLE13=I Know Him So Well
TTITLE14=Divided We Fall
TTITLE15=You Can Never Do Wron In A Mothers Eyes
EXTD=YEAR: 1993
EXTT0=
EXTT1=
EXTT2=
EXTT3=
EXTT4=
EXTT5=
EXTT6=
EXTT7=
EXTT8=
EXTT9=
EXTT10=
EXTT11=
EXTT12=
EXTT13=
EXTT14=
EXTT15=
PLAYORDER=
